<svg xmlns="http://www.w3.org/2000/svg" width="753" height="740" viewBox="0 0 753 740" version="1.1">
	<path d="M 365.910 9.707 C 364.035 11.317, 356.586 16.761, 349.358 21.805 C 342.130 26.849, 329.908 36.043, 322.198 42.238 C 314.488 48.432, 303.367 57.325, 297.485 62 C 277.987 77.497, 237.062 123.125, 223.461 144.534 C 221.376 147.815, 216.457 155.450, 212.530 161.500 C 197.542 184.588, 192.204 195.147, 184.277 217.389 C 175.903 240.889, 170 259.342, 170 262.024 C 170 262.995, 168.449 271.600, 166.554 281.145 C 161.989 304.132, 160.853 329.731, 163.542 349 C 164.502 355.875, 165.406 364.425, 165.552 368 C 165.697 371.575, 166.502 377.875, 167.341 382 C 168.179 386.125, 170.062 395.800, 171.524 403.500 C 176.005 427.096, 185.162 453.371, 197.982 479.419 C 204.042 491.732, 209 502.211, 209 502.706 C 209 503.201, 210.319 505.399, 211.931 507.591 C 213.542 509.783, 216.746 514.934, 219.049 519.038 C 221.352 523.142, 229.687 535.050, 237.570 545.500 C 249.593 561.438, 255.255 567.811, 272.701 585.046 C 293.644 605.735, 298.435 610.098, 314 622.657 C 332.928 637.929, 365.615 660.894, 368.761 661.131 C 369.717 661.203, 367.800 661.721, 364.500 662.282 C 360.684 662.931, 330.820 663.204, 282.440 663.032 C 212.143 662.783, 206.252 662.890, 204.690 664.453 C 203.761 665.382, 203 666.719, 203 667.424 C 203 668.807, 211.275 689.265, 213.109 692.417 C 213.723 693.471, 215.671 698.196, 217.439 702.917 C 222.088 715.333, 226.278 723.870, 228 724.434 C 231.978 725.737, 502.932 726.731, 506.257 725.455 C 507.216 725.087, 508 724.214, 508 723.515 C 508 722.817, 508.672 721.687, 509.493 721.006 C 510.314 720.325, 511.480 717.907, 512.083 715.634 C 512.687 713.360, 514.266 709.326, 515.591 706.668 C 516.916 704.010, 518 701.394, 518 700.854 C 518 700.314, 519.061 697.538, 520.358 694.686 C 522.796 689.324, 523.308 687.810, 527.111 674.721 C 529.248 667.363, 529.277 666.849, 527.650 665.221 C 526.065 663.635, 520.214 663.457, 452.997 662.949 C 412.884 662.646, 379.750 662.083, 379.366 661.699 C 378.502 660.835, 377.856 661.302, 388 655.466 C 399.277 648.978, 415.262 637.157, 431 623.664 C 431.825 622.957, 436.100 619.492, 440.500 615.966 C 462.523 598.313, 492.177 569.196, 503.609 553.998 C 513.951 540.249, 522.977 527.168, 527.758 519 C 544.816 489.857, 562.215 453.003, 567.415 435 C 572.173 418.528, 578.585 392.611, 582.460 374.191 C 584.743 363.338, 588.081 338.981, 588.105 333 C 588.147 322.609, 582.636 285.706, 578.514 268.772 C 570.601 236.266, 563.624 218.246, 542.850 176.665 C 533.753 158.458, 528.179 149.368, 519.752 139 C 518.187 137.075, 511.719 128.804, 505.377 120.620 C 485.220 94.606, 474.574 82.644, 462.500 72.443 C 431.549 46.296, 407.759 27.883, 393.380 18.947 C 387.946 15.570, 382.006 11.678, 380.180 10.299 C 378.353 8.919, 375.163 7.563, 373.090 7.285 C 369.955 6.865, 368.746 7.273, 365.910 9.707 M 364 17.065 C 360.425 19.769, 353.803 24.505, 349.285 27.589 C 341.917 32.619, 332.263 40.134, 299.500 66.345 C 279.524 82.326, 243.390 122.913, 227.248 147.500 C 199.474 189.805, 197.132 194.226, 186.730 224 C 175.924 254.932, 175.538 256.321, 171.148 280 C 166.073 307.380, 164.964 327.253, 167.491 345.500 C 168.406 352.100, 169.528 361.775, 169.986 367 C 170.906 377.491, 171.524 381.137, 176.343 404.500 C 180.948 426.828, 190.192 454.736, 197.045 467 C 198.120 468.925, 202.501 477.700, 206.779 486.500 C 211.057 495.300, 216.142 504.975, 218.079 508 C 220.015 511.025, 223.230 516.425, 225.223 520 C 237.834 542.625, 281.729 591.021, 309.572 613 C 311.314 614.375, 315.835 617.991, 319.619 621.036 C 334.574 633.069, 366.191 655.338, 370.864 657.131 C 372.779 657.865, 374.776 657.194, 381.364 653.600 C 389.301 649.272, 400.676 641.972, 405.900 637.855 C 407.330 636.728, 413.969 631.687, 420.653 626.653 C 437.793 613.744, 464.130 590.226, 480.068 573.596 C 500.236 552.553, 521.706 522.913, 532.292 501.500 C 533.380 499.300, 535.480 495.700, 536.959 493.500 C 538.438 491.300, 541.578 485, 543.937 479.500 C 546.296 474, 548.782 468.600, 549.461 467.500 C 554.604 459.168, 566.253 426.142, 569.390 411 C 570.245 406.875, 572.494 397.200, 574.389 389.500 C 578.020 374.741, 582.386 350.360, 583.547 338.358 C 584.242 331.165, 583.716 325.687, 579.865 300 C 576.066 274.661, 568.808 245.595, 562.509 230.500 C 548.711 197.433, 531.274 162.374, 523.432 151.933 C 520.719 148.322, 515.157 140.897, 511.072 135.433 C 501.029 122.002, 486.006 103.427, 476.348 92.500 C 463.217 77.642, 411.341 35.571, 390 22.471 C 384.775 19.264, 379.108 15.596, 377.406 14.320 C 375.704 13.044, 373.454 12.034, 372.406 12.075 C 371.358 12.116, 367.575 14.362, 364 17.065 M 401.122 69.168 C 396.339 75.397, 395.910 76.339, 397.246 77.674 C 398.581 79.009, 399.259 78.547, 403.374 73.496 C 405.918 70.372, 408 68.103, 408 68.453 C 408 68.803, 407.263 72.022, 406.363 75.607 C 404.135 84.474, 404.989 85.038, 413.875 80.563 C 417.794 78.589, 421 77.178, 421 77.427 C 421 77.675, 419.200 79.958, 417 82.500 C 412.561 87.629, 412.275 88.495, 414.593 89.792 C 415.811 90.474, 417.289 89.486, 420.876 85.592 C 428.649 77.151, 428.580 77.298, 425.868 75.039 C 422.779 72.466, 421.896 72.512, 415.873 75.564 L 410.813 78.129 411.603 74.814 C 413.144 68.347, 412.699 66.073, 409.500 64.055 L 406.500 62.163 401.122 69.168 M 427 87.629 C 422.325 89.587, 418.288 91.396, 418.029 91.649 C 417.006 92.648, 420.647 93.966, 423.045 93.464 C 424.848 93.087, 426.664 93.743, 429.275 95.716 C 432.266 97.976, 432.862 98.982, 432.442 101.061 C 432.086 102.819, 432.544 104.182, 433.901 105.411 C 435.844 107.169, 435.928 107.040, 438.819 97.850 L 441.760 88.500 439.706 86.250 C 438.576 85.013, 437.167 84.016, 436.576 84.035 C 435.984 84.054, 431.675 85.672, 427 87.629 M 431.089 90.407 L 428.678 91.743 431.370 93.507 C 434.430 95.512, 434.481 95.489, 435.378 91.750 C 436.127 88.630, 434.957 88.263, 431.089 90.407 M 444.658 92.676 C 444.286 93.048, 444.973 94.407, 446.185 95.697 L 448.389 98.043 443.161 103.337 C 438.146 108.415, 438.008 108.698, 439.774 110.295 C 441.515 111.871, 441.877 111.694, 446.519 106.980 C 449.217 104.241, 451.863 102, 452.398 102 C 452.933 102, 454.419 102.984, 455.699 104.187 C 457.297 105.688, 458.350 106.050, 459.057 105.343 C 459.765 104.635, 458.026 102.383, 453.508 98.156 C 446.948 92.020, 445.938 91.395, 444.658 92.676 M 356.873 108.250 C 318.413 139.548, 325.097 132.721, 292.116 174.383 C 280.825 188.644, 280.336 189.561, 263.474 228.013 C 249.471 259.948, 244.874 275.933, 241.339 305 C 238.431 328.904, 238.349 326.573, 243.491 365.976 C 245.460 381.064, 247.347 390.301, 251.867 406.976 C 255.075 418.814, 258.469 431.597, 259.408 435.382 C 261.434 443.544, 280.028 479.931, 288.502 492.313 C 307.364 519.876, 314.375 528.622, 334.246 549.379 C 348.808 564.590, 353.599 568.668, 364.862 575.438 C 365.994 576.118, 366.136 574.158, 365.700 563.878 C 364.769 541.918, 361.423 528.232, 353.870 515.500 C 348.631 506.668, 336.027 493.039, 313.500 471.848 C 305.937 464.733, 288.464 446.243, 282.518 439.061 C 276.512 431.808, 269.958 417.932, 267.935 408.187 C 267.318 405.216, 265.524 398.895, 263.949 394.142 C 262.373 389.389, 260.153 381.495, 259.016 376.600 C 257.105 368.376, 257.026 366.479, 257.975 351.600 C 258.539 342.745, 259.469 333.824, 260.040 331.775 C 261.321 327.187, 266.944 319.635, 269.437 319.154 C 271.145 318.825, 271.126 319.014, 269.177 321.752 C 266.456 325.573, 264.939 332.509, 264.761 341.946 C 264.633 348.684, 265.017 350.378, 268.309 357.626 C 270.339 362.095, 272 366.409, 272 367.212 C 272 370.736, 297.549 391, 301.993 391 C 303.683 391, 323.585 410.579, 330.455 419 C 335.470 425.147, 337.018 427.694, 344.678 442.399 C 347.475 447.770, 356.684 474.308, 358.593 482.500 C 358.977 484.150, 360.200 486.798, 361.310 488.385 C 363.190 491.072, 363.418 491.148, 364.628 489.494 C 365.581 488.191, 365.771 485.287, 365.339 478.608 C 365.015 473.599, 365.255 459.600, 365.872 447.500 C 366.489 435.400, 367.024 418.525, 367.061 410 L 367.129 394.500 363.840 388 C 360.812 382.013, 360.560 380.790, 360.649 372.500 C 360.703 367.550, 360.916 362.375, 361.123 361 C 361.655 357.473, 358.084 357.179, 352.714 360.307 C 348.416 362.811, 338.694 366.816, 331.500 369.046 C 329.300 369.728, 324.028 372.246, 319.785 374.643 C 315.541 377.039, 311.829 379, 311.535 379 C 310.153 379, 311.244 376.120, 313.387 374.106 C 316.993 370.718, 318.910 362.154, 318.782 350 C 318.649 337.322, 320.067 330.647, 324.964 320.889 C 327.563 315.710, 329.768 312.777, 332.336 311.082 C 334.351 309.753, 336 308.074, 336 307.353 C 336 306.631, 334.313 305.179, 332.250 304.127 C 326.975 301.434, 325.264 299.217, 322.410 291.371 C 318.349 280.207, 317.872 276.916, 319.440 270.872 C 324.580 251.061, 326.257 232.945, 323.551 226.468 C 321.212 220.869, 323.911 222.169, 329.531 229.347 C 332.264 232.838, 335.625 236.433, 337 237.335 C 338.375 238.237, 341.442 240.552, 343.816 242.479 C 346.190 244.406, 350.465 246.667, 353.316 247.504 C 357.353 248.688, 360.107 250.572, 365.758 256.013 C 369.750 259.856, 373.205 263, 373.436 263 C 373.667 263, 374.375 260.413, 375.009 257.250 C 377.425 245.194, 378.160 242.620, 380.471 238.127 C 384.911 229.497, 391.884 223.746, 406.855 216.365 C 414.360 212.665, 422.684 208.146, 425.354 206.324 C 430.229 202.997, 433.436 202.711, 430.682 205.849 C 425.103 212.206, 423.589 222.161, 426.500 233.339 C 429.634 245.372, 427.760 260.512, 421.909 270.430 C 420.772 272.357, 420.129 274.399, 420.480 274.967 C 420.851 275.568, 425.377 276, 431.309 276 C 441.881 276, 454.745 277.938, 461.270 280.512 C 463.344 281.331, 467.844 282.006, 471.270 282.014 C 474.697 282.021, 478.512 282.299, 479.750 282.630 C 482.291 283.311, 482.805 285, 480.472 285 C 479.631 285, 474.793 289.336, 469.722 294.636 C 447.647 317.702, 445.269 319.582, 433.120 323.555 C 430.209 324.508, 427.580 325.932, 427.277 326.720 C 426.950 327.574, 428.601 330.057, 431.356 332.854 C 435.255 336.813, 436.378 338.891, 438.472 346.027 C 439.839 350.687, 440.967 356.127, 440.979 358.115 C 440.991 360.193, 441.853 362.815, 443.007 364.282 C 444.598 366.304, 452.368 386, 451.575 386 C 451.465 386, 448.964 384.837, 446.017 383.416 C 440.174 380.597, 427.268 377, 422.997 377 C 420.210 377, 412.233 374.497, 403.346 370.836 C 397.192 368.300, 395.426 368.767, 394.472 373.182 C 393.490 377.734, 390.386 383.723, 386.533 388.500 C 380.241 396.304, 376.774 413.181, 376.366 438 C 376.136 451.970, 375.853 485.550, 375.947 487.750 C 376.091 491.149, 378.459 488.006, 383.021 478.359 C 385.788 472.507, 390.245 464.962, 392.926 461.593 C 400.721 451.797, 413.909 439.883, 422.585 434.798 C 426.998 432.213, 432.609 428.377, 435.054 426.276 C 437.499 424.174, 441.300 421.136, 443.500 419.524 C 451.557 413.620, 459.167 406.386, 462.079 401.862 C 463.721 399.311, 467.059 391.277, 469.497 384.008 C 472.588 374.793, 474.956 369.536, 477.318 366.646 C 479.181 364.365, 481.417 361.117, 482.286 359.427 C 484.084 355.935, 486.748 353.415, 487.669 354.335 C 488.010 354.676, 487.563 356.878, 486.676 359.228 C 484.293 365.539, 483.142 375.459, 482.583 394.500 C 482.026 413.492, 480.957 418.310, 474.508 430.892 C 470.203 439.291, 464.226 447.699, 453.014 461.127 C 448.026 467.102, 437.913 476.962, 436.750 476.985 C 436.337 476.993, 435.212 477.670, 434.250 478.490 C 426.299 485.258, 422.707 488.157, 417.551 491.968 C 414.279 494.386, 406.501 501.570, 400.265 507.932 C 387.810 520.641, 383.915 527.091, 378.486 544 C 376.172 551.207, 375.775 554.097, 375.877 563 C 375.943 568.775, 375.641 574.050, 375.206 574.722 C 374.772 575.395, 372.635 576.331, 370.458 576.803 L 366.500 577.660 369.771 578.414 C 372.429 579.027, 374.401 578.506, 380.288 575.636 C 386.110 572.797, 389.494 570.090, 397.517 561.850 C 403.007 556.210, 413.365 545.724, 420.533 538.548 C 427.920 531.153, 436.368 521.486, 440.033 516.236 C 443.590 511.141, 448.848 503.941, 451.718 500.236 C 465.231 482.791, 472.986 471.576, 474.536 467.240 C 475.467 464.633, 479.968 453.275, 484.537 442 C 490.871 426.367, 494.287 416, 498.923 398.332 L 505.003 375.165 505.592 343.832 L 506.181 312.500 501.659 288 C 497.609 266.057, 496.299 261.075, 489.100 240.260 C 484.679 227.478, 480.313 215.553, 479.398 213.760 C 475.217 205.566, 454.682 172.992, 444.711 158.738 L 433.686 142.976 405.642 118.488 C 390.218 105.020, 376.876 94, 375.992 94 C 375.108 94, 366.504 100.412, 356.873 108.250 M 454 111.935 C 448.061 117.328, 447.636 117.977, 449.071 119.454 C 450.515 120.940, 450.864 120.895, 453.404 118.897 L 456.168 116.723 458.259 118.815 C 460.199 120.755, 460.253 121.203, 459.002 124.994 C 457.805 128.620, 457.842 129.270, 459.324 130.752 C 460.885 132.313, 461.098 132.160, 462.567 128.421 C 464.025 124.710, 464.383 124.446, 467.481 124.808 C 470.108 125.115, 471.069 124.740, 471.967 123.061 C 472.596 121.886, 472.802 119.953, 472.425 118.765 C 471.752 116.642, 462.288 105.984, 461.105 106.016 C 460.772 106.025, 457.575 108.689, 454 111.935 M 460.743 112.732 C 459.102 114.545, 459.173 114.775, 462.310 117.815 C 464.117 119.567, 466.136 121, 466.798 121 C 468.936 121, 468.075 117.115, 465.231 113.932 C 462.530 110.910, 462.419 110.880, 460.743 112.732 M 274.842 125.019 C 266.838 133.959, 266.242 135, 269.127 135 C 270.392 135, 272.467 133.668, 273.928 131.917 C 276.483 128.856, 276.588 128.830, 288.598 128.277 C 298.941 127.801, 300.862 127.450, 301.855 125.860 C 302.962 124.088, 302.486 124, 291.834 124 L 280.651 124 282.826 121.686 C 285.506 118.832, 285.560 118, 283.063 118 C 281.929 118, 278.524 120.907, 274.842 125.019 M 470.126 128.539 C 466.206 131.605, 463 134.483, 463 134.935 C 463 135.386, 463.599 136.253, 464.332 136.861 C 465.356 137.710, 467.317 136.754, 472.798 132.733 C 480.134 127.352, 480.998 126.073, 478.626 124.104 C 477.544 123.206, 475.735 124.150, 470.126 128.539 M 475.775 133.509 C 472.307 135.454, 471 137.925, 471 142.534 C 471 147.397, 476.300 153, 480.900 153 C 482.605 153, 484 152.745, 484 152.434 C 484 150.882, 481.783 148.016, 480.970 148.518 C 479.652 149.333, 476.238 147.313, 474.988 144.977 C 473.595 142.375, 475.132 139.500, 478.980 137.510 C 482.824 135.523, 483.543 135.593, 485.969 138.197 C 487.492 139.832, 487.867 141.193, 487.432 143.512 C 487.027 145.670, 487.324 147.024, 488.399 147.916 C 489.713 149.006, 490.126 148.817, 491.102 146.676 C 494.742 138.688, 483.603 129.119, 475.775 133.509 M 270.072 137.745 C 265.487 138.002, 263.286 138.592, 262.396 139.802 C 261.258 141.350, 261.815 141.544, 268.712 142 L 276.276 142.500 265.402 146.431 C 255.647 149.957, 251.130 152.775, 251.033 155.398 C 251.014 155.914, 256.996 156.059, 265.073 155.740 C 277.190 155.260, 279.334 154.927, 280.498 153.341 C 281.776 151.602, 281.404 151.472, 273.780 151 L 265.709 150.500 276.605 146.584 C 286.607 142.989, 292 139.921, 292 137.826 C 292 137.028, 283.441 136.997, 270.072 137.745 M 491.783 158.349 C 484.979 162.554, 484.328 163.390, 485.914 165.894 C 486.644 167.049, 487.399 166.917, 490.291 165.129 L 493.785 162.970 495.892 166.542 C 497.052 168.507, 498 170.302, 498 170.531 C 498 170.761, 496.650 171.647, 495 172.500 C 491.903 174.101, 491.027 176.689, 493.287 177.557 C 494.644 178.077, 510 170.175, 510 168.956 C 510 168.565, 509.357 167.712, 508.572 167.060 C 507.459 166.136, 506.483 166.216, 504.146 167.425 C 501.168 168.964, 501.132 168.950, 498.915 165.362 L 496.682 161.749 499.091 159.897 C 500.416 158.878, 501.853 158.034, 502.285 158.022 C 502.717 158.010, 502.589 157.100, 502 156 C 500.557 153.304, 499.586 153.527, 491.783 158.349 M 480.441 156.096 C 479.368 157.831, 482.720 160.680, 484.150 159.250 C 485.037 158.363, 485.009 157.716, 484.035 156.542 C 482.527 154.725, 481.376 154.582, 480.441 156.096 M 267.360 164.991 C 263.932 170.312, 263.131 170.983, 260.208 170.991 L 256.916 171 259.553 166.500 L 262.190 162 259.687 162 C 257.816 162, 256.478 163.115, 254.390 166.415 C 252.422 169.527, 250.723 171.005, 248.639 171.422 C 247.012 171.748, 245.540 171.873, 245.368 171.702 C 245.197 171.530, 246.619 169.070, 248.528 166.234 C 250.438 163.399, 252 160.836, 252 160.539 C 252 160.243, 250.937 160, 249.637 160 C 247.774 160, 246.196 161.693, 242.182 168 L 237.090 176 248.420 176 C 266.446 176, 265.645 176.468, 275.369 160.250 C 275.886 159.386, 275.361 159, 273.669 159 C 271.773 159, 270.349 160.351, 267.360 164.991 M 503.250 178.047 C 495.787 182.186, 495.436 182.561, 496.883 184.844 C 497.584 185.952, 498.303 185.895, 500.960 184.521 C 502.734 183.603, 504.308 182.998, 504.457 183.176 C 506.840 186.016, 506.942 188.205, 504.860 191.823 C 503.406 194.348, 502.911 196.311, 503.406 197.578 C 504.084 199.309, 504.486 199.113, 507.439 195.619 C 509.522 193.155, 510.975 192.151, 511.419 192.869 C 512.340 194.360, 516.283 194.317, 517.800 192.800 C 518.460 192.140, 519 190.412, 519 188.960 C 519 185.684, 513.269 173.995, 511.672 174.013 C 511.027 174.020, 507.238 175.836, 503.250 178.047 M 234.265 180.919 C 233.108 182.798, 233.461 183.053, 239.873 184.962 C 243.636 186.083, 247.256 187, 247.917 187 C 251.443 187, 246.852 189.010, 237.439 191.586 C 228.060 194.153, 226.615 194.844, 225.296 197.396 C 224.102 199.703, 224.072 200.187, 225.149 199.776 C 225.892 199.492, 233.250 197.360, 241.500 195.039 C 255.476 191.106, 259 189.377, 259 186.451 C 259 185.810, 254.387 184.035, 248.750 182.507 C 243.113 180.979, 237.825 179.546, 237 179.322 C 236.175 179.097, 234.944 179.816, 234.265 180.919 M 509.657 180.261 C 507.915 181.535, 507.912 181.748, 509.583 185.252 C 510.543 187.265, 511.947 189.149, 512.702 189.439 C 515.547 190.531, 515.601 184.570, 512.782 180.716 C 511.666 179.191, 511.212 179.125, 509.657 180.261 M 506.250 200.824 C 505.266 201.449, 505.305 202.030, 506.433 203.559 C 508.124 205.850, 510.464 204.372, 509.426 201.667 C 508.716 199.816, 508.096 199.652, 506.250 200.824 M 520.040 202.685 C 517.934 204.160, 517.804 204.784, 518.397 210.571 C 519.141 217.829, 517.833 219.747, 514.744 215.932 C 513.386 214.255, 512.966 212.600, 513.329 210.359 C 513.634 208.480, 513.293 206.418, 512.498 205.336 C 511.231 203.611, 511.084 203.672, 510.062 206.347 C 507.784 212.315, 512.719 222, 518.037 222 C 522.107 222, 523.337 219.211, 522.489 211.903 C 521.933 207.119, 522.076 206, 523.241 206 C 525.036 206, 527.245 210.652, 526.526 212.917 C 526.232 213.846, 526.631 215.481, 527.414 216.551 C 528.785 218.426, 528.862 218.396, 529.529 215.742 C 530.540 211.714, 529.292 206.611, 526.735 204.309 C 523.234 201.158, 522.480 200.975, 520.040 202.685 M 228.022 202.745 C 225.009 202.952, 222.203 203.656, 221.787 204.310 C 219.942 207.212, 221.074 207.666, 229.250 207.302 L 237.500 206.935 226.818 211.671 C 216.896 216.071, 214 218.365, 214 221.826 C 214 222.228, 220.188 222.393, 227.750 222.192 C 238.884 221.896, 241.738 221.522, 242.750 220.222 C 244.961 217.384, 244.150 217.001, 235.750 216.918 L 227.500 216.836 235 213.435 C 247.083 207.956, 249.270 206.628, 250.126 204.250 C 250.929 202.019, 250.864 202.002, 242.218 202.185 C 237.423 202.287, 231.035 202.539, 228.022 202.745 M 524.500 223.248 C 520.100 224.921, 516.360 226.402, 516.189 226.539 C 515.506 227.087, 520.258 241, 521.129 241 C 522.892 241, 523.055 238.406, 521.557 234.162 C 520.102 230.036, 520.122 229.890, 522.279 229.079 C 524.236 228.343, 524.658 228.704, 525.833 232.122 C 526.567 234.255, 527.804 236, 528.583 236 C 530.296 236, 530.338 235.268, 528.865 231.042 C 527.954 228.428, 528.003 227.612, 529.115 226.908 C 531.407 225.456, 531.771 225.796, 533.500 231 C 535.089 235.785, 536.255 237.014, 537.419 235.130 C 537.957 234.260, 534.286 222.073, 533.119 220.854 C 532.779 220.498, 528.900 221.575, 524.500 223.248 M 399.212 225.188 C 398.546 225.854, 398 226.969, 398 227.665 C 398 229.181, 394.865 231, 392.253 231 C 389.505 231, 384.859 236.154, 385.977 237.962 C 386.594 238.961, 386.274 239.820, 384.934 240.759 C 383.870 241.504, 383 243.007, 383 244.099 C 383 245.190, 382.072 247.077, 380.938 248.292 C 379.413 249.925, 379.026 251.300, 379.450 253.572 C 379.766 255.261, 379.681 256.986, 379.262 257.405 C 378.843 257.823, 378.420 262.516, 378.323 267.833 C 378.225 273.150, 377.835 278.512, 377.456 279.750 C 376.680 282.283, 375 282.796, 375 280.500 C 375 279.675, 374.623 279, 374.162 279 C 373.701 279, 373.262 277.346, 373.186 275.324 C 373.110 273.302, 372.587 271.187, 372.024 270.624 C 371.461 270.061, 371 268.163, 371 266.407 C 371 264.481, 370.400 262.984, 369.490 262.634 C 368.659 262.316, 367.861 262.155, 367.716 262.277 C 367.571 262.400, 366.366 261.488, 365.038 260.250 C 363.710 259.012, 362.262 258, 361.820 258 C 361.379 258, 359.659 256.579, 358 254.842 C 356.340 253.106, 354.708 251.959, 354.372 252.295 C 354.036 252.630, 353.108 252.251, 352.310 251.452 C 350.248 249.390, 348.461 249.652, 347.332 252.181 C 346.559 253.914, 345.376 254.419, 341.568 254.641 C 338.387 254.825, 336.285 254.428, 335.317 253.459 C 332.786 250.929, 332.179 251.833, 332.431 257.750 C 332.643 262.699, 332.344 263.814, 330.282 265.754 C 328.965 266.994, 328.164 268.457, 328.503 269.004 C 328.841 269.552, 328.615 270, 328 270 C 327.385 270, 327.196 270.508, 327.580 271.130 C 328.008 271.822, 327.740 272.064, 326.889 271.755 C 325.444 271.230, 325.394 270.675, 326.533 267.750 C 327.046 266.432, 326.709 266, 325.169 266 C 323.918 266, 323.094 266.679, 323.047 267.750 C 322.754 274.428, 323.033 278.193, 323.946 279.898 C 324.526 280.982, 325 282.986, 325 284.351 C 325 285.717, 325.971 289.009, 327.158 291.667 C 329.249 296.351, 329.524 297.170, 329.848 299.683 C 329.931 300.333, 331.012 301.167, 332.250 301.537 C 333.488 301.906, 335.625 302.932, 337 303.817 C 338.530 304.802, 341.949 305.485, 345.815 305.578 C 349.289 305.662, 352.602 306.202, 353.178 306.778 C 354.458 308.058, 353.411 310, 351.441 310 C 350.648 310, 350 310.726, 350 311.614 C 350 312.955, 349.254 313.115, 345.584 312.565 C 340.459 311.796, 336.290 313.329, 331.125 317.880 C 328.949 319.798, 327.750 321.762, 327.750 323.408 C 327.750 324.813, 327.229 326.395, 326.593 326.923 C 325.931 327.472, 325.602 329.621, 325.823 331.942 C 326.202 335.915, 326.977 336.565, 330.750 336.075 C 331.438 335.985, 332 336.763, 332 337.803 C 332 339.956, 334.658 345.670, 336.063 346.539 C 336.578 346.858, 337 348.190, 337 349.500 C 337 352.551, 338.287 353.295, 343.940 353.512 C 346.464 353.609, 349.523 354.310, 350.738 355.069 C 352.767 356.336, 353.165 356.187, 355.602 353.245 C 357.062 351.482, 358.652 350.285, 359.135 350.583 C 360.040 351.143, 365.256 347.905, 368.115 345.009 C 370.286 342.811, 372.291 338.958, 371.616 338.283 C 371.316 337.983, 371.589 336.784, 372.223 335.619 C 372.858 334.453, 373.262 332.094, 373.122 330.375 C 372.898 327.621, 373.173 327.250, 375.434 327.250 C 376.845 327.250, 378.057 327.531, 378.128 327.875 C 378.540 329.892, 378.910 334.167, 379.076 338.825 C 379.218 342.802, 379.739 344.444, 381.133 345.315 C 382.160 345.956, 383 347.273, 383 348.241 C 383 349.208, 383.450 350, 384 350 C 384.550 350, 385.002 350.788, 385.004 351.750 C 385.009 354.237, 393.946 361.247, 396.320 360.626 C 397.362 360.354, 399.354 360.564, 400.747 361.094 C 402.666 361.824, 403.700 361.677, 405.015 360.487 C 405.969 359.623, 407.144 359.007, 407.625 359.117 C 408.106 359.227, 409.304 358.966, 410.287 358.537 C 411.444 358.033, 412.706 358.329, 413.866 359.379 C 414.851 360.270, 416.360 361, 417.218 361 C 419.647 361, 423.073 357.739, 423.258 355.250 C 423.448 352.702, 424.202 352.485, 426.932 354.190 C 432.905 357.920, 433.597 345.461, 427.884 337.041 C 426.021 334.294, 423.713 332.040, 422.750 332.026 C 421.788 332.012, 421 331.543, 421 330.985 C 421 329.047, 414.516 326.007, 410.372 326.004 C 407.927 326.002, 405.737 325.389, 405 324.500 C 404.315 323.675, 403.183 323, 402.485 323 C 401.390 323, 399.460 320.038, 400.226 319.533 C 400.377 319.434, 402.750 318.858, 405.500 318.254 C 409.463 317.382, 411.122 317.441, 413.500 318.537 C 420.989 321.988, 426.086 323.173, 427.696 321.837 C 428.551 321.128, 430.542 320.683, 432.122 320.849 C 433.886 321.034, 436.011 320.350, 437.632 319.075 C 439.083 317.934, 441.039 317, 441.980 317 C 442.920 317, 444.529 316.073, 445.555 314.939 C 447.152 313.175, 447.210 312.745, 445.960 311.954 C 445.157 311.446, 443.922 311.024, 443.215 311.015 C 442.179 311.003, 442.172 310.563, 443.177 308.750 C 443.863 307.512, 444.309 306.101, 444.167 305.613 C 444.025 305.125, 444.770 303.775, 445.823 302.613 C 448.999 299.107, 450.684 290.661, 448.701 288.186 C 448.079 287.409, 446.689 287.112, 445.300 287.461 C 443.587 287.891, 442.317 287.367, 440.611 285.525 C 439.324 284.136, 437.683 283, 436.964 283 C 436.245 283, 434.881 282.297, 433.932 281.438 C 431.768 279.480, 421.560 278.284, 420.578 279.874 C 420.195 280.493, 418.784 281, 417.441 281 C 416.098 281, 415 281.418, 415 281.929 C 415 282.900, 407.725 288.124, 404.823 289.238 C 403.901 289.592, 402.656 289.291, 402.058 288.570 C 401.219 287.559, 403.267 284.898, 410.997 276.954 C 418.437 269.308, 420.874 266.178, 420.443 264.820 C 420.081 263.679, 420.449 262.765, 421.420 262.392 C 422.953 261.804, 425.609 254.276, 424.630 253.296 C 424.354 253.020, 424.559 251.661, 425.085 250.276 C 426.345 246.963, 424.630 244.804, 421.386 245.618 C 418.574 246.324, 418.457 245.545, 420.603 240.409 C 422.187 236.616, 422.175 236.547, 419.530 234.272 C 418.059 233.007, 416.418 232.242, 415.884 232.572 C 415.350 232.902, 414.335 232.693, 413.628 232.107 C 412.790 231.411, 411.257 231.353, 409.213 231.939 C 406.146 232.819, 406.094 232.778, 406.666 229.918 C 407.120 227.652, 406.887 227, 405.625 227 C 404.731 227, 404 227.450, 404 228 C 404 228.550, 403.555 229, 403.012 229 C 402.468 229, 402.131 228.037, 402.262 226.860 C 402.542 224.344, 400.936 223.464, 399.212 225.188 M 218.199 228.261 C 209.316 231.106, 203.581 240.792, 207.740 245.927 C 210.081 248.818, 218.189 249.834, 224.771 248.062 C 232.874 245.880, 239.632 236.917, 236.951 231.909 C 234.442 227.221, 226.357 225.648, 218.199 228.261 M 216.337 233.606 C 212.369 235.563, 210.146 240.266, 212.085 242.602 C 214.257 245.220, 226.142 244.155, 229.451 241.046 C 232.179 238.483, 232.752 235.152, 230.800 233.200 C 229.100 231.500, 220.094 231.753, 216.337 233.606 M 527.420 240.885 C 523.138 243.497, 521.463 247.844, 522.975 252.426 C 524.058 255.705, 528.118 260, 530.135 260 C 532.060 260, 530.914 255.437, 528.750 254.487 C 525.479 253.052, 525.129 247.723, 528.166 245.596 C 530.854 243.713, 536.098 243.498, 537.800 245.200 C 539.396 246.796, 539.321 250.179, 537.638 252.480 C 536.305 254.304, 536.521 258, 537.962 258 C 539.263 258, 541.809 254.552, 542.022 252.500 C 542.563 247.307, 541.830 244.676, 539.077 241.923 C 535.637 238.483, 531.904 238.151, 527.420 240.885 M 221.486 253.045 C 221.013 254.533, 221.441 255.762, 222.905 257.126 C 225.357 259.411, 225.320 259.204, 223.864 262.399 C 221.695 267.160, 210.774 269.631, 206.166 266.403 C 202.960 264.158, 203.753 260.991, 208.250 258.087 C 210.338 256.738, 212 254.853, 212 253.832 C 212 251.510, 210.848 251.527, 206.162 253.917 C 198.892 257.626, 196.864 266.347, 202.330 270.401 C 208.267 274.804, 223.386 271.919, 227.531 265.593 C 230.103 261.668, 230.456 256.765, 228.344 254.314 C 225.529 251.047, 222.309 250.452, 221.486 253.045 M 526 263.833 C 526 266.193, 526.841 266.998, 528.598 266.324 C 530.810 265.475, 530.329 262, 528 262 C 526.727 262, 526 262.667, 526 263.833 M 537.950 267.561 C 537.237 268.419, 536.451 271.577, 536.202 274.579 C 535.953 277.581, 535.287 280.322, 534.723 280.671 C 532.128 282.275, 529.660 273.740, 532.033 271.367 C 533.150 270.250, 532.329 267, 530.928 267 C 529.453 267, 528 270.714, 528 274.484 C 528 281.415, 532.867 287.212, 536.882 285.063 C 539.300 283.769, 540 281.855, 540 276.541 C 540 270.915, 542.395 268.578, 544.169 272.472 C 545.084 274.481, 545.106 275.600, 544.258 276.959 C 543.104 278.806, 543.616 283, 544.995 283 C 546.541 283, 548.241 276.873, 547.671 273.359 C 546.634 266.968, 541.154 263.700, 537.950 267.561 M 383.989 278.514 C 381.716 280.931, 378.732 287.757, 379.445 288.910 C 379.724 289.363, 379.036 290.562, 377.915 291.577 C 376.169 293.157, 375.745 293.212, 374.949 291.960 C 374.439 291.157, 374.227 289.938, 374.479 289.250 C 374.731 288.563, 374.608 288, 374.206 288 C 373.803 288, 373.030 286.988, 372.487 285.751 C 371.944 284.514, 369.925 282.736, 368 281.799 C 363.699 279.706, 363.775 279.713, 361.632 281.280 C 360.200 282.327, 360.071 283.056, 360.922 285.295 C 361.880 287.816, 362.272 287.980, 365.932 287.395 C 369.574 286.812, 369.954 286.968, 370.534 289.278 C 372.164 295.773, 368.771 299.956, 364.795 296.355 C 361.410 293.289, 358.412 292.888, 355.573 295.122 C 353.182 297.002, 353.163 297.123, 354.811 300.018 C 356.746 303.419, 359.939 303.950, 360.710 301 C 361.719 297.141, 369.145 299.008, 372.471 303.957 C 376.594 310.091, 382.052 310.914, 383.385 305.604 C 383.779 304.033, 385.511 302.447, 388.312 301.091 C 393.193 298.728, 395.237 298.521, 398.173 300.093 C 401.084 301.650, 402.558 299.887, 400.878 296.857 C 400.159 295.561, 399.555 294.185, 399.535 293.800 C 399.516 293.415, 398.984 292.584, 398.352 291.952 C 397.489 291.089, 396.638 291.571, 394.914 293.902 C 392.449 297.237, 390 297.987, 390 295.408 C 390 294.532, 390.933 292.629, 392.073 291.180 L 394.146 288.544 392.098 287.631 C 389.441 286.445, 386.176 290.190, 386.619 293.917 C 387.403 300.524, 384.604 301.792, 380.658 296.618 L 378.078 293.236 382.440 288.618 C 384.839 286.078, 387.677 284, 388.746 284 C 389.815 284, 391.505 283.100, 392.500 282 C 394.210 280.111, 394.215 279.895, 392.599 278.109 C 390.433 275.716, 386.443 275.903, 383.989 278.514 M 207.581 288.886 C 193.720 293.594, 192.279 294.534, 192.070 299.009 C 192.019 300.104, 195.635 301.554, 205.250 304.296 C 212.537 306.374, 218.838 308.057, 219.250 308.037 C 219.662 308.017, 220 307.077, 220 305.948 C 220 304.592, 219.035 303.560, 217.156 302.905 C 214.373 301.934, 214.330 301.805, 215.116 296.830 C 216.042 290.970, 215.655 291.545, 219.500 290.310 C 221.697 289.604, 222.585 288.630, 222.816 286.673 C 222.990 285.203, 222.765 284.035, 222.316 284.079 C 221.867 284.122, 215.236 286.285, 207.581 288.886 M 537.388 286.934 C 536.227 287.428, 534.270 289.108, 533.041 290.667 C 529.953 294.580, 530.652 301.444, 534.474 304.731 C 535.943 305.995, 537.562 306.771, 538.072 306.455 C 539.730 305.431, 539.052 302.151, 537.051 301.516 C 532.951 300.215, 533.288 294.101, 537.566 292.152 C 541.690 290.273, 544.792 290.752, 546.626 293.552 C 548.219 295.983, 548.193 296.247, 546.093 299.088 C 543.444 302.671, 543.998 306.607, 546.930 305.037 C 551.265 302.717, 551.995 293.661, 548.218 289.041 C 546.288 286.680, 540.587 285.570, 537.388 286.934 M 203.009 295.743 L 198.518 297.327 202.009 298.588 C 208.127 300.796, 210 300.424, 210 297 C 210 293.593, 209.404 293.486, 203.009 295.743 M 397.029 306.469 C 395.753 307.827, 394.286 308.677, 393.768 308.357 C 393.251 308.037, 391.324 309.232, 389.488 311.012 C 386.269 314.131, 385.936 314.224, 380.324 313.566 C 373.454 312.760, 368.640 310.751, 366.599 307.839 C 365.705 306.561, 364.514 305.972, 363.564 306.337 C 361.805 307.012, 361.428 309, 363.059 309 C 363.641 309, 363.877 309.390, 363.583 309.866 C 362.865 311.028, 366.209 313.963, 368.826 314.466 C 369.981 314.689, 372.405 315.559, 374.213 316.400 C 377.684 318.016, 383.712 318.275, 384.595 316.847 C 384.883 316.381, 385.981 316, 387.035 316 C 388.089 316, 390.425 315.102, 392.226 314.004 C 394.027 312.906, 396.460 312.006, 397.633 312.004 C 399.732 312, 400.955 309.717, 400.986 305.750 C 401.005 303.334, 399.762 303.560, 397.029 306.469 M 544 307.552 C 543.175 307.729, 540.362 308.154, 537.750 308.498 C 533.612 309.042, 533 309.425, 533 311.466 C 533 313.623, 533.319 313.767, 537 313.273 L 541 312.737 541 317.368 L 541 322 537 322 C 533.707 322, 533 322.343, 533 323.941 C 533 326.793, 533.837 326.985, 543.344 326.314 C 551.591 325.732, 552 325.592, 552 323.351 C 552 321.275, 551.533 321, 548 321 L 544 321 544 316.500 C 544 312.024, 544.019 312, 547.500 312 C 550.567 312, 551 311.690, 551 309.500 C 551 307.411, 550.548 307.019, 548.250 307.116 C 546.737 307.180, 544.825 307.376, 544 307.552 M 196.750 312.742 C 190.345 313.073, 190 313.217, 190 315.546 C 190 317.854, 190.327 318, 195.500 318 L 201 318 201 322.383 C 201 327.254, 199.960 327.960, 192.750 327.986 C 189.434 327.998, 189 328.285, 189 330.467 L 189 332.935 202.250 332.384 C 217.748 331.739, 218 331.686, 218 329.031 C 218 327.213, 217.365 327, 211.945 327 L 205.890 327 206.195 322.250 L 206.500 317.500 212.750 317.202 C 218.637 316.922, 219 316.762, 219 314.452 C 219 312.043, 218.863 312.003, 211.250 312.196 C 206.988 312.304, 200.463 312.549, 196.750 312.742 M 538.110 330.396 C 532.599 333.450, 531.092 343.183, 535.455 347.545 C 539.086 351.177, 545.187 350.967, 549.077 347.077 C 551.514 344.640, 551.995 343.352, 551.968 339.327 C 551.934 334.196, 550.840 332.040, 547.316 330.163 C 544.481 328.654, 541.099 328.739, 538.110 330.396 M 537.655 335.829 C 532.080 341.990, 541.222 349.210, 547.744 343.797 C 549.341 342.472, 549.378 336.778, 547.800 335.200 C 545.932 333.332, 539.557 333.728, 537.655 335.829 M 189 345.500 C 189 354.967, 189.009 355, 191.500 355 C 193.670 355, 194 354.557, 194 351.647 L 194 348.293 201.651 347.647 C 205.859 347.291, 211.259 347, 213.651 347 C 217.680 347, 218 346.807, 218 344.372 L 218 341.743 206 342.459 L 194 343.175 194 339.588 C 194 336.427, 193.702 336, 191.500 336 C 189.009 336, 189 336.033, 189 345.500 M 370.001 351.611 C 367.609 354.038, 365.555 357.031, 365.437 358.262 C 365.168 361.075, 364.275 364.747, 363.591 365.852 C 363.304 366.317, 363.953 367.646, 365.033 368.805 C 366.113 369.965, 367.261 372.620, 367.583 374.707 C 367.905 376.793, 368.541 378.888, 368.997 379.363 C 370.095 380.506, 372 379.265, 372 377.406 C 372 376.594, 372.719 374.832, 373.598 373.491 C 375 371.351, 375.374 371.232, 376.659 372.516 C 377.464 373.321, 378.379 375.559, 378.692 377.490 C 379.179 380.489, 379.652 381, 381.943 381 C 383.808 381, 385.355 380.011, 387.027 377.750 C 388.348 375.962, 389.362 374.396, 389.279 374.268 C 389.197 374.141, 389.521 372.670, 390 371 C 390.732 368.447, 390.469 367.530, 388.349 365.242 C 386.962 363.746, 385.207 361.039, 384.450 359.227 C 383.693 357.416, 381.707 354.783, 380.037 353.378 C 378.367 351.972, 377 350.235, 377 349.518 C 377 346.585, 374.099 347.452, 370.001 351.611 M 204 356.861 L 190.500 361.616 190.199 365.157 L 189.897 368.698 204.458 372.506 C 212.467 374.601, 219.250 376.083, 219.533 375.800 C 220.644 374.689, 218.697 372.090, 216.067 371.173 C 213.882 370.411, 213.161 369.392, 212.659 366.353 C 211.672 360.379, 211.801 359.965, 215 358.850 C 217.404 358.012, 218 357.228, 218 354.902 C 218 353.306, 217.887 352.024, 217.750 352.053 C 217.613 352.082, 211.425 354.246, 204 356.861 M 535.707 354.016 C 527.722 360.297, 531.200 373.037, 540.885 372.978 C 549.711 372.923, 554.281 362.053, 548.411 355.077 C 545.240 351.308, 539.735 350.848, 535.707 354.016 M 536.278 358.250 C 532.574 363.036, 534.911 368, 540.868 368 C 543.301 368, 545.292 367.335, 546.345 366.171 C 548.281 364.032, 548.516 359.916, 546.800 358.200 C 545.219 356.619, 537.512 356.655, 536.278 358.250 M 200.615 363.875 L 195.730 365.596 201.600 367.230 C 204.828 368.128, 207.536 368.782, 207.616 368.682 C 208.049 368.146, 206.674 362.012, 206.137 362.078 C 205.786 362.120, 203.302 362.929, 200.615 363.875 M 530.554 376.146 C 530.046 377.633, 528 388.877, 528 390.184 C 528 390.633, 528.627 391, 529.393 391 C 531.037 391, 531.994 388.871, 532.015 385.168 C 532.041 380.770, 532.926 380.343, 540.759 380.955 C 547.271 381.463, 548.079 381.328, 548.616 379.636 C 549.472 376.938, 547.402 376.033, 540.332 376.015 C 536.939 376.007, 533.456 375.728, 532.590 375.396 C 531.705 375.057, 530.814 375.385, 530.554 376.146 M 196.415 380.732 L 191.330 381.093 191.928 384.770 L 192.525 388.448 200.763 390.415 C 205.293 391.497, 209 392.681, 209 393.046 C 209 393.410, 205.626 394.710, 201.501 395.935 C 194.268 398.082, 194.023 398.256, 194.594 400.830 C 196.082 407.541, 195.804 407.303, 201.358 406.635 C 204.186 406.295, 210.438 406.013, 215.250 406.009 C 223.914 406, 224 405.976, 224 403.500 C 224 401.002, 223.993 401, 213.750 400.912 L 203.500 400.824 212.750 397.701 C 225.397 393.432, 225.207 392.089, 211.525 389.053 C 205.764 387.774, 201.291 386.339, 201.584 385.864 C 201.878 385.389, 206.115 385, 211 385 C 219.997 385, 221.496 384.456, 220.396 381.590 C 219.892 380.277, 218.192 380.032, 210.643 380.185 C 205.614 380.287, 199.212 380.533, 196.415 380.732 M 276.690 389.079 C 276.271 390.680, 276.791 391.834, 278.555 393.222 C 279.901 394.280, 282.231 397.251, 283.734 399.823 C 285.237 402.395, 289.046 407.133, 292.198 410.351 C 295.350 413.569, 298.201 417.057, 298.532 418.101 C 298.864 419.146, 299.534 420, 300.022 420 C 302.103 420, 306 425.232, 306 428.026 C 306 430.324, 306.544 431.098, 308.500 431.589 C 309.875 431.934, 311 432.628, 311 433.131 C 311 433.633, 312.800 435.997, 315 438.384 C 317.200 440.771, 319 443.461, 319 444.362 C 319 445.263, 319.337 446.001, 319.750 446.001 C 321.196 446.004, 325.719 450.530, 327.254 453.511 C 328.106 455.167, 330.873 458.251, 333.402 460.364 C 336.334 462.814, 338 465.012, 338 466.429 C 338 467.651, 339.125 469.708, 340.500 471 C 341.875 472.292, 343 473.993, 343 474.780 C 343 475.567, 344.012 477.453, 345.250 478.972 C 346.488 480.490, 347.979 482.548, 348.564 483.544 C 350.272 486.454, 353.387 484.678, 352.611 481.238 C 352.271 479.732, 351.366 475.575, 350.599 472 C 349.833 468.425, 348.034 463.140, 346.603 460.255 C 345.171 457.370, 344 454.203, 344 453.216 C 344 452.230, 343.100 449.658, 342 447.500 C 340.900 445.342, 340 442.648, 340 441.511 C 340 440.368, 337.544 436.890, 334.500 433.722 C 331.475 430.574, 329 427.429, 329 426.733 C 329 426.038, 326.324 422.776, 323.053 419.485 C 319.783 416.193, 316.849 412.488, 316.534 411.250 C 316.214 409.989, 315.191 409, 314.207 409 C 313.243 409, 308.895 405.421, 304.546 401.047 C 300.198 396.672, 295.258 392.548, 293.570 391.882 C 291.881 391.216, 289.735 390.021, 288.801 389.227 C 287.867 388.432, 284.890 387.575, 282.186 387.321 C 277.758 386.905, 277.212 387.080, 276.690 389.079 M 370.740 392.917 C 370.552 393.788, 370.787 396.075, 371.261 398 C 371.735 399.925, 372.080 401.950, 372.028 402.500 C 371.884 404.019, 370.957 428.081, 370.911 431.500 C 370.889 433.150, 370.628 435.175, 370.332 436 C 370.036 436.825, 369.657 440.282, 369.489 443.683 C 369.254 448.452, 369.483 449.752, 370.491 449.365 C 372.523 448.585, 373.609 439.417, 372.667 431 C 372.513 429.625, 372.831 427.906, 373.374 427.180 C 373.917 426.454, 374.433 423.304, 374.521 420.180 C 374.610 417.056, 375.055 412.475, 375.510 410 C 375.966 407.525, 376.408 404.600, 376.493 403.500 C 376.578 402.400, 377.001 400.262, 377.432 398.750 C 378.755 394.115, 377.491 391.333, 374.064 391.333 C 372.155 391.333, 370.959 391.903, 370.740 392.917 M 524 391.805 C 524 393.277, 529.046 397.089, 530.118 396.427 C 530.603 396.127, 531 394.956, 531 393.824 C 531 392.197, 530.540 391.887, 528.802 392.342 C 527.593 392.658, 526.018 392.430, 525.302 391.836 C 524.412 391.097, 524 391.088, 524 391.805 M 271.835 398.712 C 270.919 398.933, 269.907 399.799, 269.586 400.636 C 268.925 402.360, 269.869 407, 270.881 407 C 271.743 407, 274.369 412.220, 276.590 418.348 C 277.575 421.066, 279.569 424.100, 281.128 425.253 C 282.657 426.384, 284.210 428.702, 284.579 430.404 C 284.947 432.107, 286.763 434.980, 288.615 436.789 C 290.467 438.598, 292.259 441.185, 292.599 442.539 C 293.007 444.164, 294.200 445.254, 296.113 445.749 C 297.706 446.162, 298.908 446.725, 298.784 447 C 298.315 448.040, 306.838 457.880, 313.992 464.556 C 318.084 468.375, 323.022 473.212, 324.966 475.304 C 326.910 477.396, 330.577 481.334, 333.116 484.054 C 335.655 486.774, 338.230 489, 338.838 489 C 339.446 489, 340.318 487.552, 340.777 485.782 C 341.848 481.648, 338.597 475.022, 332.968 469.864 C 330.786 467.864, 329 465.498, 329 464.605 C 329 463.713, 326.525 460.290, 323.500 457 C 320.475 453.710, 317.999 450.676, 317.997 450.259 C 317.996 449.841, 316.647 448.600, 315 447.500 C 313.353 446.400, 312.004 444.806, 312.003 443.958 C 312.001 443.110, 309.975 440.429, 307.500 438 C 305.025 435.571, 303 433.001, 303 432.289 C 303 431.577, 298.163 425.998, 292.250 419.892 C 286.337 413.785, 281.168 407.912, 280.762 406.841 C 279.557 403.658, 273.645 398.275, 271.835 398.712 M 525.642 403.250 C 523.544 406.611, 522.881 410.556, 523.942 413.348 C 524.711 415.370, 525.972 416.053, 530.694 417.001 C 533.887 417.642, 537.551 418.413, 538.837 418.714 C 540.837 419.182, 541.125 418.921, 540.837 416.904 C 540.560 414.967, 539.699 414.415, 536 413.801 C 527.681 412.421, 527 412.103, 527 409.603 C 527 405.765, 529.001 404.862, 534.991 405.998 C 542.950 407.508, 544 407.349, 544 404.636 C 544 402.582, 543.392 402.189, 539.360 401.636 C 530.494 400.421, 527.163 400.813, 525.642 403.250 M 87.609 406.533 C 84.719 409.423, 83.757 406.928, 106.299 455 C 112.618 468.475, 132.980 511.900, 151.548 551.500 C 170.117 591.100, 188.766 631.131, 192.992 640.457 C 197.910 651.312, 201.542 658.034, 203.087 659.138 C 205.320 660.733, 207.809 660.788, 236.500 659.873 C 253.550 659.329, 268.506 658.679, 269.735 658.427 C 274.020 657.550, 273.599 653.903, 267.694 640.767 C 264.662 634.020, 261.891 627.150, 261.536 625.500 C 261.182 623.850, 256.224 613.050, 250.518 601.500 C 244.812 589.950, 231.834 562.500, 221.678 540.500 C 211.522 518.500, 194.334 481.375, 183.482 458 C 172.631 434.625, 162.930 413.602, 161.925 411.281 C 160.711 408.479, 159.326 406.898, 157.799 406.573 C 156.535 406.303, 140.587 405.822, 122.359 405.503 C 92.738 404.986, 89.048 405.095, 87.609 406.533 M 591.252 407.197 C 589.807 408.937, 583.726 420.637, 563.806 460 C 549.496 488.277, 544.417 497.575, 546.600 491.500 C 547.496 489.007, 546.674 489.727, 545.036 492.871 C 544.240 494.399, 544.191 495, 544.900 494.562 C 545.505 494.188, 546 494.168, 546 494.518 C 546 494.868, 541.725 503.278, 536.500 513.207 C 531.275 523.136, 527 531.467, 527 531.720 C 527 531.972, 522.776 539.902, 517.613 549.340 C 506.857 569.004, 492.485 596.366, 475.486 629.543 C 466.085 647.891, 463.812 653.116, 464.331 655.183 C 464.690 656.611, 465.774 658.100, 466.741 658.492 C 467.709 658.885, 482.187 659.678, 498.915 660.255 L 529.329 661.305 533.144 656.902 C 535.241 654.481, 538.812 648.900, 541.079 644.500 C 543.346 640.100, 545.574 636.041, 546.031 635.481 C 546.488 634.921, 548.829 630.646, 551.234 625.981 C 553.639 621.316, 558.621 612.212, 562.304 605.748 C 565.987 599.285, 569 593.851, 569 593.674 C 569 593.496, 571.752 588.434, 575.115 582.425 C 578.478 576.416, 584.265 565.875, 587.975 559 C 591.686 552.125, 601.376 534.350, 609.510 519.500 C 617.644 504.650, 628.089 485.525, 632.721 477 C 644.798 454.772, 653.498 438.919, 659.696 427.848 C 668.106 412.827, 668.699 409.960, 663.776 408.119 C 662.524 407.651, 645.950 406.944, 626.944 406.547 C 598.252 405.949, 592.196 406.059, 591.252 407.197 M 468.450 416.611 C 463.982 418.928, 462.181 420.900, 461.437 424.287 C 460.755 427.394, 452.783 436, 450.587 436 C 449.223 436, 440.020 445.120, 439.958 446.534 C 439.934 447.065, 438.472 448.622, 436.708 449.993 C 434.943 451.364, 427.988 457.928, 421.250 464.579 C 412.358 473.357, 408.996 477.334, 408.984 479.086 C 408.975 480.522, 407.151 483.524, 404.484 486.493 C 399.604 491.927, 399.376 492.593, 401.458 495.341 C 403.446 497.964, 406.358 496.737, 412.338 490.757 C 415.088 488.007, 418.725 485.177, 420.419 484.468 C 422.114 483.760, 425.313 481.452, 427.530 479.340 C 429.746 477.228, 433.571 473.925, 436.030 472 C 447.287 463.186, 464.381 442.468, 467.589 433.750 C 467.943 432.788, 468.746 432, 469.373 432 C 470.657 432, 473.336 424.352, 472.516 423.026 C 472.224 422.554, 472.415 421.040, 472.939 419.661 C 474.324 416.018, 472.275 414.626, 468.450 416.611 M 604.237 418.237 C 595.358 433.151, 591.844 440.244, 592.839 441.239 C 593.614 442.014, 594.428 441.711, 595.710 440.170 L 597.500 438.020 605.500 442.626 C 609.900 445.158, 615.417 448.325, 617.760 449.663 C 621.558 451.832, 621.899 452.321, 620.906 454.175 C 620.054 455.768, 620.100 456.444, 621.106 457.065 C 622.062 457.656, 624.363 454.438, 629.597 445.188 C 633.545 438.210, 636.597 432.199, 636.378 431.830 C 636.160 431.462, 633.939 430.019, 631.442 428.624 C 627.412 426.371, 626.833 426.271, 626.272 427.734 C 625.925 428.639, 626.165 429.555, 626.807 429.769 C 627.448 429.983, 628.945 430.944, 630.132 431.906 L 632.291 433.654 628.655 440.077 C 626.656 443.610, 624.644 447.075, 624.184 447.777 C 623.538 448.765, 622.292 448.464, 618.684 446.447 C 616.118 445.013, 613.770 443.437, 613.466 442.944 C 613.161 442.452, 613.933 440.276, 615.180 438.109 C 617.110 434.755, 617.730 434.320, 619.351 435.188 C 620.745 435.934, 621.474 435.851, 622.076 434.878 C 623.235 433.002, 613.342 427.258, 611.729 428.871 C 610.900 429.700, 611.080 430.338, 612.416 431.315 C 614.152 432.584, 614.138 432.809, 612.092 436.819 C 610.919 439.119, 609.744 441, 609.480 441 C 608.447 441, 599.028 435.461, 599.014 434.846 C 598.997 434.034, 605.844 421.809, 606.957 420.665 C 607.404 420.206, 609.185 420.561, 610.914 421.456 C 613.884 422.991, 616 422.843, 616 421.100 C 616 420.670, 613.790 419.115, 611.090 417.645 L 606.180 414.973 604.237 418.237 M 450 420.086 C 448.625 421.213, 445.960 423.564, 444.078 425.311 C 439.736 429.341, 428.844 436.975, 427.415 436.989 C 426.819 436.995, 425.128 438.350, 423.658 440 C 422.187 441.650, 420.408 443, 419.703 443 C 418.053 443, 410 449.992, 410 451.423 C 410 452.022, 408.672 453.100, 407.049 453.818 C 403.846 455.236, 398.256 462.409, 395.998 468 C 395.221 469.925, 393.972 472.126, 393.223 472.890 C 390.506 475.666, 389.143 478.590, 388.498 483.023 C 387.946 486.826, 388.169 487.843, 389.902 489.411 C 392.445 491.713, 393.760 490.830, 398.703 483.500 C 404.744 474.544, 407.042 471.611, 410.041 469.035 C 411.664 467.641, 414.037 464.475, 415.313 462 C 416.846 459.028, 418.932 456.818, 421.456 455.491 C 423.558 454.385, 425.653 452.466, 426.112 451.226 C 426.571 449.986, 428.047 448.552, 429.392 448.041 C 430.738 447.529, 432.212 446.513, 432.669 445.781 C 433.126 445.050, 434.625 443.716, 436 442.816 C 439.496 440.529, 449.058 431.191, 452.195 427 C 457.147 420.387, 455.595 415.500, 450 420.086 M 224.640 425.187 C 225.504 428.109, 226.415 430.837, 226.664 431.250 C 226.914 431.663, 225.370 432, 223.235 432 C 219.475 432, 219.304 431.849, 217.880 427.250 C 216.777 423.685, 215.859 422.420, 214.205 422.180 C 211.689 421.816, 211.444 423.106, 213.116 427.902 C 214.401 431.589, 214.389 431.613, 210.780 432.519 C 208.163 433.176, 208.002 432.978, 206.368 427.100 C 204.911 421.858, 204.343 421, 202.336 421 C 199.478 421, 199.468 421.437, 202.120 430.168 L 204.239 437.147 218.039 436.823 C 225.629 436.646, 232.078 436.260, 232.370 435.967 C 232.661 435.673, 231.877 432.073, 230.626 427.967 C 228.607 421.336, 228.057 420.465, 225.711 420.187 L 223.070 419.874 224.640 425.187 M 519.596 425.319 C 517.444 432.721, 517.584 435.404, 520.284 438.544 C 523.090 441.806, 528.989 442.205, 532.206 439.350 C 534.497 437.317, 537.438 431.220, 538.438 426.430 L 539.080 423.360 532.290 422.123 C 528.555 421.442, 524.530 420.648, 523.346 420.358 C 521.461 419.897, 520.991 420.518, 519.596 425.319 M 522.556 426.715 C 521.496 429.477, 522.008 433.865, 523.571 435.429 C 526.739 438.596, 531.996 436.317, 533.860 430.970 C 535.057 427.538, 535.225 427.671, 527.806 426.198 C 524.013 425.445, 523.005 425.544, 522.556 426.715 M 216.643 442.028 C 209.763 444.090, 208.438 448.499, 212.123 457.065 L 214.246 462 224.873 461.942 C 230.718 461.911, 237.180 461.573, 239.233 461.192 L 242.967 460.500 240.420 455 C 236.997 447.605, 233.557 444.243, 227.609 442.476 C 222.088 440.837, 220.794 440.784, 216.643 442.028 M 514.299 444.503 C 511.701 446.323, 509.591 452.235, 510.396 455.441 C 510.772 456.942, 512.324 458.311, 514.741 459.276 C 520.929 461.745, 525.987 462.917, 526.150 461.919 C 526.232 461.414, 526.345 460.467, 526.400 459.817 C 526.455 459.166, 523.575 457.693, 520 456.544 C 514.153 454.664, 513.528 454.207, 513.779 451.998 C 514.253 447.817, 515.476 447.479, 523.029 449.438 C 526.901 450.442, 530.236 451.092, 530.440 450.882 C 530.643 450.672, 530.965 449.650, 531.155 448.611 C 531.439 447.056, 530.346 446.392, 525 444.864 C 517.144 442.621, 516.994 442.615, 514.299 444.503 M 162.090 445.941 C 160.909 446.674, 160.891 447.322, 161.975 449.940 C 162.687 451.658, 163.076 453.258, 162.839 453.495 C 162.384 453.950, 135.033 467, 134.534 467 C 134.374 467, 133.683 465.650, 133 464 C 131.810 461.126, 129.688 460.078, 128.606 461.828 C 128.176 462.523, 141.167 491.501, 142.511 492.844 C 142.756 493.089, 146.341 491.813, 150.478 490.010 C 156.114 487.552, 158 486.245, 158 484.798 C 158 482.602, 156.204 482.893, 149.790 486.128 C 147.749 487.158, 145.633 488, 145.088 488 C 144.162 488, 135.648 471.019, 136.265 470.402 C 136.420 470.247, 139.462 468.790, 143.024 467.165 C 146.586 465.541, 152.998 462.595, 157.273 460.620 L 165.046 457.029 166.708 460.515 C 167.737 462.672, 169.088 464, 170.253 464 C 172.597 464, 172.143 462.303, 167.119 452.284 C 164.351 446.764, 163.169 445.273, 162.090 445.941 M 217.223 447.557 C 214.692 449.329, 214.470 451.415, 216.434 454.962 C 217.746 457.331, 218.135 457.413, 226.649 457.122 C 231.517 456.956, 235.646 456.677, 235.824 456.503 C 236.002 456.328, 235.417 454.774, 234.525 453.049 C 231.338 446.885, 222.284 444.012, 217.223 447.557 M 587 447.441 C 587 448.234, 587.493 449.186, 588.095 449.559 C 588.767 449.974, 588.113 450.942, 586.403 452.064 C 584.870 453.069, 582.580 455.604, 581.313 457.696 C 575.251 467.709, 581.791 479.727, 595.096 483.022 C 603.647 485.139, 610.885 481.309, 614.447 472.782 C 616.503 467.860, 616.534 461, 614.500 461 C 613.450 461, 613 462.059, 613 464.532 C 613 473.209, 606.913 480.011, 599.173 479.984 C 593.812 479.965, 587.778 476.970, 584.677 472.788 C 578.731 464.768, 586.383 450.441, 594.897 453.655 C 597.237 454.538, 597.979 454.497, 598.376 453.462 C 598.977 451.896, 597.892 450.943, 592.290 448.121 C 587.299 445.606, 587 445.568, 587 447.441 M 369.575 452.878 C 369.241 453.419, 369.351 454.099, 369.820 454.389 C 370.522 454.822, 370.646 459.500, 369.956 459.500 C 369.367 459.500, 368.927 465.723, 368.737 476.713 C 368.528 488.791, 369.305 492.166, 371.921 490.549 C 373.490 489.579, 372.933 452.810, 371.342 452.280 C 370.705 452.068, 369.910 452.337, 369.575 452.878 M 505.644 463.485 C 505.022 465.107, 506.462 466.080, 512.250 467.946 C 517.981 469.794, 516.740 471, 509.107 471 C 500.212 471, 499.693 472.288, 506.059 478.558 C 508.751 481.210, 510.805 483.529, 510.622 483.711 C 510.440 483.894, 507.693 483.049, 504.519 481.834 C 498.913 479.689, 498.708 479.679, 497.384 481.490 C 496.634 482.515, 496.140 483.473, 496.285 483.619 C 496.431 483.764, 500.264 485.473, 504.803 487.416 L 513.057 490.949 514.721 487.458 L 516.385 483.968 511.985 479.484 L 507.584 475 514.185 475 L 520.786 475 522.291 471.250 L 523.797 467.500 515.694 464.750 C 506.235 461.540, 506.383 461.559, 505.644 463.485 M 239.576 468.157 C 235.897 470.097, 235.482 470.125, 232.922 468.613 C 231.420 467.726, 228.139 467, 225.631 467 C 218.544 467, 217.938 469.231, 222.447 478.726 L 226.044 486.301 236.678 485.651 C 242.526 485.293, 249.031 485, 251.134 485 C 254.735 485, 254.898 484.869, 253.934 482.750 C 253.019 480.736, 252.313 480.534, 247.206 480.823 C 241.789 481.129, 241.411 480.994, 239.750 478.168 C 238.787 476.531, 238 474.984, 238 474.732 C 238 474.479, 240.025 473.498, 242.500 472.553 C 247.097 470.797, 247.453 470.344, 246.393 467.582 C 245.606 465.531, 244.356 465.637, 239.576 468.157 M 225.368 472.485 C 225.054 473.301, 225.653 475.439, 226.698 477.235 C 228.228 479.865, 229.328 480.561, 232.352 480.814 L 236.105 481.127 234.049 477.097 C 231.268 471.644, 226.635 469.183, 225.368 472.485 M 562.561 492.065 C 559.502 497.541, 557 502.193, 557 502.404 C 557 502.614, 557.673 503.044, 558.496 503.360 C 559.520 503.753, 560.632 502.681, 562.017 499.967 C 563.130 497.785, 564.498 496, 565.057 496 C 566.139 496, 586.929 507.562, 588.331 508.943 C 588.788 509.394, 588.185 511.677, 586.991 514.017 C 585.286 517.360, 585.097 518.442, 586.112 519.069 C 587.521 519.940, 588.020 519.241, 594.798 506.903 C 598.593 499.994, 599.068 498, 596.915 498 C 596.501 498, 595.148 499.688, 593.908 501.750 C 592.668 503.813, 591.532 505.661, 591.384 505.859 C 590.807 506.630, 567 492.776, 567.007 491.673 C 567.010 491.028, 567.907 489.150, 569 487.500 C 571.376 483.913, 571.437 483.382, 569.561 482.662 C 568.547 482.273, 566.480 485.049, 562.561 492.065 M 494.485 487.048 C 494.124 488.184, 494.400 489.777, 495.104 490.625 C 497.055 492.976, 492.436 501, 489.131 501 C 486.947 501, 484.112 503.363, 484.032 505.250 C 484.014 505.663, 488.713 506, 494.474 506 L 504.949 506 506.517 502.968 L 508.085 499.935 501.908 492.468 C 498.511 488.360, 495.597 485, 495.433 485 C 495.269 485, 494.842 485.922, 494.485 487.048 M 162.081 491.647 C 158.306 493.528, 155.914 495.625, 153.812 498.897 C 151.195 502.969, 150.896 504.207, 151.217 509.630 C 151.644 516.848, 154.690 521.676, 160.582 524.472 C 168.535 528.246, 181.542 524.245, 187.741 516.118 C 190.550 512.434, 191 511.047, 191 506.070 C 191 499.437, 188.634 495.018, 183.078 491.274 C 178.138 487.945, 169.191 488.104, 162.081 491.647 M 239.750 490.786 C 234.387 490.944, 230.007 491.394, 230.015 491.786 C 230.024 492.179, 230.451 493.164, 230.964 493.977 C 231.720 495.171, 234.097 495.392, 243.403 495.135 C 254.654 494.825, 254.966 494.875, 257.508 497.417 C 260.887 500.796, 259.988 502, 254.088 502 C 251.451 502, 246.545 502.287, 243.186 502.638 C 237.460 503.237, 237.145 503.402, 238.151 505.281 C 239.155 507.159, 239.932 507.250, 250.362 506.724 C 262.479 506.112, 264.539 505.643, 265.440 503.295 C 266.202 501.309, 263.263 496.278, 259.858 493.740 C 256.378 491.146, 251.566 490.439, 239.750 490.786 M 166.871 493.565 C 161.279 495.286, 155.403 501.337, 154.464 506.338 C 153.565 511.130, 156.844 518.351, 160.863 520.429 C 169.614 524.955, 183.318 519.260, 186.978 509.576 C 189.252 503.558, 185.601 496.258, 178.993 493.614 C 174.205 491.698, 172.950 491.693, 166.871 493.565 M 496.659 498 L 494.887 501 499.012 501 L 503.136 501 501 498 C 499.825 496.350, 498.766 495, 498.648 495 C 498.529 495, 497.634 496.350, 496.659 498 M 479.037 512.945 C 476.817 516.215, 475 519.365, 475 519.945 C 475 522.478, 478.046 520.638, 480.641 516.536 L 483.465 512.072 489.930 515.626 C 496.003 518.964, 496.475 519.071, 497.698 517.399 C 498.414 516.419, 499 515.352, 499 515.028 C 499 514.490, 484.558 507, 483.521 507 C 483.275 507, 481.258 509.675, 479.037 512.945 M 550.160 514.203 C 548.091 517.787, 547.432 519.823, 548.122 520.500 C 548.806 521.171, 549.748 520.758, 550.983 519.248 L 552.824 516.996 562.536 528.041 C 567.877 534.115, 572.068 539.265, 571.849 539.485 C 571.287 540.046, 544.263 535.596, 543.480 534.813 C 543.127 534.460, 543.326 533.260, 543.922 532.146 C 544.703 530.686, 544.699 529.932, 543.907 529.442 C 542.534 528.594, 540.933 530.296, 537.921 535.807 C 535.914 539.479, 535.784 540.250, 537.034 541.032 C 538.094 541.695, 538.758 541.384, 539.433 539.906 C 540.010 538.645, 541.030 538.036, 542.099 538.316 C 543.052 538.565, 550.647 539.816, 558.977 541.095 C 572.126 543.115, 574.243 543.229, 575.045 541.961 C 575.554 541.157, 575.974 540.050, 575.980 539.500 C 575.986 538.950, 571.237 533.002, 565.427 526.282 C 557.769 517.425, 554.951 513.462, 555.182 511.875 C 555.785 507.726, 553.212 508.919, 550.160 514.203 M 250.228 512.168 C 245.314 514.671, 246.877 520.907, 253.435 524.960 C 263.665 531.282, 281 530.712, 281 524.054 C 281 521.293, 276.383 516.239, 271.624 513.790 C 266.779 511.298, 253.862 510.318, 250.228 512.168 M 254.750 516.023 C 248.462 519.890, 260.483 526.739, 270.669 525.092 C 275.883 524.250, 276.394 521.129, 271.848 517.892 C 268.179 515.280, 257.803 514.146, 254.750 516.023 M 195.448 521.761 C 195.967 524.126, 195.321 525.238, 190.946 529.511 C 188.136 532.255, 182.210 538.455, 177.776 543.288 C 170.583 551.129, 169.825 552.321, 170.746 554.341 L 171.777 556.606 190.639 554.863 C 209.116 553.157, 209.531 553.160, 211 555.034 C 211.937 556.230, 212.982 556.646, 213.784 556.144 C 215.801 554.881, 209.678 541.803, 207.467 542.651 C 205.919 543.245, 205.913 544.423, 207.439 548.108 C 208.020 549.510, 206.283 549.867, 193.802 550.909 C 185.936 551.566, 178.150 552.347, 176.500 552.645 C 173.889 553.117, 175.120 551.553, 185.996 540.582 C 198.004 528.470, 198.525 528.076, 199.330 530.489 C 199.835 532.006, 200.925 533, 202.083 533 C 204.658 533, 204.517 531.968, 200.986 524.971 C 197.771 518.603, 194.314 516.599, 195.448 521.761 M 471.943 523.569 C 470.838 524.900, 471.046 525.470, 473.312 527.319 L 475.983 529.500 472.946 533.968 C 468.329 540.762, 470.074 546.202, 476.365 544.623 C 478.552 544.074, 487.657 534.166, 488.737 531.159 C 488.954 530.554, 474.978 522, 473.772 522 C 473.482 522, 472.659 522.706, 471.943 523.569 M 283.566 532.250 C 284.598 533.487, 286.552 535.737, 287.908 537.250 L 290.374 540 279.354 540 C 273.293 540, 268.037 540.296, 267.675 540.658 C 267.313 541.020, 267.519 541.920, 268.131 542.658 C 268.961 543.657, 272.595 543.996, 282.372 543.985 C 289.593 543.976, 296.025 543.635, 296.667 543.227 C 297.448 542.730, 296.011 540.421, 292.322 536.242 C 288.264 531.647, 286.134 530, 284.250 530 C 281.706 530, 281.702 530.014, 283.566 532.250 M 476.135 534.486 C 473.846 537.847, 473.793 541, 476.025 541 C 477.204 541, 483 535.027, 483 533.812 C 483 533.176, 479.735 530.987, 478.816 531.007 C 478.642 531.011, 477.436 532.576, 476.135 534.486 M 455.144 545.507 C 451.691 549.817, 450.405 552.133, 451.196 552.621 C 451.904 553.059, 453.869 551.602, 456.163 548.938 C 459.706 544.824, 460.070 544.642, 461.626 546.197 C 463.181 547.753, 463.112 548.078, 460.590 551.076 C 458.683 553.342, 458.200 554.600, 458.949 555.349 C 459.698 556.098, 460.842 555.416, 462.832 553.032 C 464.846 550.620, 466.156 549.846, 467.410 550.327 C 468.376 550.698, 469.016 551.423, 468.833 551.938 C 468.333 553.344, 457.601 565.876, 456.840 565.942 C 456.477 565.974, 453.819 564.134, 450.934 561.853 C 446.877 558.646, 445.327 557.935, 444.094 558.712 C 441.546 560.320, 442.168 561.545, 447.810 566.038 L 453.120 570.266 450.451 573.051 C 446.070 577.624, 448.587 578.802, 453.207 574.341 C 456.645 571.020, 470.007 555.784, 473.831 550.822 C 474.972 549.343, 474.248 548.553, 467.695 544.131 L 460.265 539.118 455.144 545.507 M 532.500 549.924 C 529.649 551.122, 527.895 553.415, 522.745 562.681 C 518.942 569.524, 518.458 570.962, 519.787 571.472 C 520.700 571.822, 521.742 571.426, 522.237 570.541 C 522.711 569.693, 523.543 569, 524.086 569 C 525.153 569, 545.955 580.588, 547.343 581.955 C 547.806 582.412, 547.702 583.689, 547.111 584.793 C 546.284 586.338, 546.361 586.925, 547.445 587.341 C 549.116 587.982, 550.022 586.960, 552.969 581.114 C 554.738 577.603, 554.915 576.565, 553.854 575.910 C 553.005 575.385, 552.201 575.703, 551.617 576.795 C 551.115 577.733, 550.591 578.643, 550.452 578.817 C 550.313 578.992, 547.876 577.957, 545.036 576.518 L 539.873 573.902 541.732 570.701 C 543.529 567.608, 543.894 567.470, 552.611 566.604 C 561.196 565.752, 561.714 565.563, 563.359 562.698 C 564.623 560.494, 564.789 559.394, 563.976 558.593 C 562.954 557.587, 560.823 559.333, 559.786 562.027 C 559.629 562.436, 556.310 563.085, 552.411 563.470 L 545.321 564.171 545.734 561.335 C 546.806 553.977, 538.959 547.211, 532.500 549.924 M 530.041 557.101 C 526.611 561.837, 525.440 564.889, 526.651 565.936 C 527.118 566.340, 529.615 567.876, 532.200 569.348 L 536.900 572.026 539.332 567.763 C 542.976 561.375, 543.327 558.685, 540.916 555.621 C 537.680 551.507, 533.702 552.049, 530.041 557.101 M 215.048 559.970 C 213.883 560.690, 213.836 561.345, 214.798 563.456 C 215.856 565.778, 215.743 566.150, 213.741 566.938 C 212.509 567.423, 206.176 570.335, 199.670 573.410 C 193.163 576.484, 187.456 579, 186.987 579 C 186.518 579, 185.841 578.074, 185.482 576.943 C 184.753 574.648, 181.294 574.719, 181.820 577.018 C 182.297 579.109, 194.039 604.364, 194.997 605.363 C 195.979 606.385, 207 601.566, 207 600.114 C 207 598.180, 205.046 597.954, 201.422 599.468 C 199.406 600.311, 197.570 601, 197.342 601 C 196.671 601, 189 584.727, 189 583.303 C 189 582.586, 189.169 582, 189.376 582 C 189.582 582, 192.278 580.882, 195.367 579.516 L 200.983 577.033 203.492 581.984 L 206.001 586.936 203.541 588.224 C 201.794 589.140, 201.333 589.921, 201.952 590.922 C 203.249 593.021, 214.500 588.064, 214.500 585.394 C 214.500 583.468, 213.864 583.321, 210.759 584.529 C 209.383 585.065, 208.596 584.223, 207.009 580.521 C 205.904 577.943, 205 575.622, 205 575.362 C 205 574.785, 215.691 570, 216.980 570 C 217.663 570, 226 586.164, 226 587.487 C 226 587.602, 224.200 588.508, 222 589.500 C 218.316 591.161, 217.133 592.800, 218.576 594.243 C 219.011 594.677, 229.132 590.740, 230.768 589.500 C 231.082 589.262, 218.001 560.841, 217.095 559.792 C 216.759 559.402, 215.838 559.482, 215.048 559.970 M 438.109 572.387 C 435.875 574.693, 435.201 576.006, 435.999 576.500 C 437.342 577.329, 444.211 571.151, 443.402 569.842 C 442.512 568.401, 441.502 568.887, 438.109 572.387 M 422.997 579.816 C 419.780 582.916, 417.980 585.500, 417.944 587.066 C 417.866 590.456, 407.559 598.709, 405.518 597.015 C 403.416 595.271, 399.399 597.571, 401.058 599.570 C 401.975 600.675, 401.970 601.331, 401.036 602.456 C 399.325 604.518, 400.636 606.265, 402.961 605.021 C 404.458 604.220, 405.445 604.751, 408.267 607.873 C 411.589 611.551, 411.822 611.643, 413.893 610.080 C 415.514 608.858, 416.445 606.319, 417.622 599.913 C 419.176 591.448, 419.213 591.378, 421.962 591.781 C 425.623 592.318, 430.647 589.628, 432.900 585.925 C 434.523 583.255, 434.849 583.113, 436.046 584.556 C 437.210 585.958, 436.681 586.788, 431.941 590.995 C 428.145 594.365, 426.812 596.149, 427.533 596.896 C 428.258 597.647, 430.569 596.157, 435.283 591.903 C 438.977 588.569, 441.987 585.539, 441.971 585.170 C 441.955 584.802, 440.619 583.046, 439.002 581.269 C 435.567 577.494, 433.530 577.798, 431.617 582.371 C 430.898 584.092, 429.145 586.122, 427.722 586.883 C 425.010 588.332, 422 587.844, 422 585.954 C 422 584.060, 427.739 579, 429.888 579 C 431.011 579, 432.411 578.100, 433 577 C 433.961 575.204, 433.760 575, 431.032 575 C 428.759 575, 426.734 576.214, 422.997 579.816 M 507.616 589.589 C 502.147 599.554, 500.991 602.375, 501.991 603.316 C 502.776 604.054, 503.397 604.123, 503.641 603.500 C 505.120 599.722, 505.693 599.850, 517.863 606.679 C 529.498 613.207, 529.995 613.618, 529.431 616.250 C 528.998 618.267, 529.232 619, 530.306 619 C 531.655 619, 545 596.560, 545 594.291 C 545 593.756, 542.799 592.120, 540.108 590.655 C 536.113 588.481, 535.114 588.259, 534.659 589.446 C 534.304 590.372, 535.353 591.673, 537.551 593.031 C 539.448 594.204, 541 595.312, 541 595.494 C 541 595.768, 533.140 609.823, 532.435 610.810 C 532.034 611.372, 522.029 605.517, 522.014 604.710 C 522.006 604.276, 522.914 602.130, 524.030 599.941 C 525.770 596.531, 526.333 596.108, 527.964 596.981 C 530.491 598.333, 531 598.268, 531 596.595 C 531 595.210, 523.157 590, 521.072 590 C 519.415 590, 519.806 592.792, 521.604 593.798 C 523.066 594.617, 523.070 594.953, 521.641 597.598 C 518.421 603.559, 518.654 603.483, 513.116 600.372 C 510.303 598.793, 508.002 597.123, 508.001 596.662 C 508 595.963, 514.601 583.423, 515.682 582.071 C 515.871 581.835, 517.625 582.405, 519.581 583.337 C 522.877 584.909, 525.001 584.852, 524.999 583.191 C 524.998 582.582, 515.758 576.964, 514.853 577.023 C 514.659 577.035, 511.402 582.690, 507.616 589.589 M 470.474 594.667 C 461.688 602.184, 448.875 612.941, 442 618.572 C 435.125 624.202, 427.250 630.863, 424.500 633.375 C 421.750 635.886, 418.914 637.734, 418.198 637.482 C 417.482 637.229, 417.140 637.417, 417.438 637.899 C 417.736 638.381, 414.607 641.638, 410.485 645.138 C 406.363 648.637, 402.709 652.551, 402.366 653.835 C 401.120 658.489, 402.698 658.809, 429.312 659.304 L 454.124 659.766 457.225 657.157 C 459.054 655.618, 462.053 650.847, 464.538 645.524 C 466.855 640.561, 473.990 625.748, 480.392 612.606 C 486.795 599.464, 492.302 587.646, 492.629 586.343 C 493.354 583.452, 491.506 581, 488.601 581 C 487.281 581, 480.269 586.286, 470.474 594.667 M 252.200 583.200 C 249.394 586.006, 251.029 590.976, 263.983 619 C 267.415 626.425, 270.799 633.175, 271.503 634 C 272.207 634.825, 275.318 640.577, 278.416 646.783 C 282.168 654.296, 284.827 658.420, 286.376 659.126 C 287.991 659.862, 296.589 659.905, 314.486 659.269 C 337.279 658.458, 340.418 658.148, 341.554 656.595 C 343.577 653.828, 341.465 649.519, 335.640 644.526 C 332.813 642.103, 325.100 635.788, 318.500 630.493 C 283.563 602.464, 276.765 596.914, 268.631 589.780 C 261.544 583.562, 259.124 582, 256.581 582 C 254.832 582, 252.860 582.540, 252.200 583.200 M 411.771 598.100 C 409.147 600.058, 409.105 600.230, 410.670 602.619 C 411.565 603.985, 412.622 604.742, 413.018 604.301 C 413.644 603.606, 415.190 595.947, 414.687 596.032 C 414.584 596.049, 413.272 596.980, 411.771 598.100 M 495 611.938 C 495 612.522, 495.026 613.248, 495.058 613.551 C 495.091 613.855, 493.711 615.705, 491.992 617.662 C 486.730 623.654, 485.659 628.921, 488.665 634.010 C 489.581 635.561, 491.402 637.318, 492.712 637.915 C 498.289 640.456, 502.597 638.353, 508.046 630.433 C 511.590 625.281, 515.129 623.902, 518.040 626.536 C 521.779 629.920, 520.075 636.746, 514.065 642.460 C 511.274 645.114, 510.651 645.307, 508.040 644.321 C 505.653 643.420, 505.023 643.498, 504.541 644.754 C 503.839 646.584, 503.488 646.244, 508.869 648.958 C 512.256 650.667, 513.492 650.891, 514.369 649.956 C 515.146 649.128, 515.168 648.626, 514.440 648.355 C 513.858 648.138, 515.294 645.964, 517.631 643.524 C 524.191 636.678, 525.351 629.378, 520.694 624.250 C 519.275 622.687, 517.517 622, 514.936 622 C 510.823 622, 509.157 623.206, 503.712 630.124 C 499.786 635.113, 497.679 636.165, 494.198 634.878 C 488.970 632.944, 489.393 624.872, 495.004 619.496 C 497.639 616.972, 498.246 616.791, 500.556 617.844 C 503.085 618.996, 505 618.675, 505 617.100 C 505 616.670, 502.750 615.093, 500 613.597 C 497.250 612.100, 495 611.353, 495 611.938 M 299.849 674.520 C 290.883 679.390, 290.120 703.230, 298.713 709.989 C 302.400 712.889, 308.084 712.642, 311.921 709.413 C 320.127 702.508, 319.417 680.608, 310.791 674.566 C 308.029 672.632, 303.361 672.612, 299.849 674.520 M 448.849 674.520 C 439.236 679.742, 439.246 705.456, 448.863 710.429 C 452.720 712.424, 459.239 712.445, 463.050 710.474 C 465.772 709.067, 466 708.525, 466 703.474 C 466 700.463, 466.450 698, 467 698 C 467.550 698, 468 697.100, 468 696 C 468 694.222, 467.333 694, 462 694 C 456.667 694, 456 694.222, 456 696 C 456 697.619, 456.667 698, 459.500 698 C 462.972 698, 463 698.035, 463 702.422 C 463 706.591, 462.799 706.911, 459.497 708.001 C 450.575 710.945, 444 704.420, 444 692.623 C 444 680.235, 451.423 673.124, 459.025 678.230 C 461.588 679.951, 462.582 681.408, 462.813 683.782 C 463.007 685.767, 463.677 687, 464.563 687 C 465.675 687, 466 685.418, 466 680 C 466 674.444, 465.690 673, 464.500 673 C 463.649 673, 463 673.897, 463 675.073 L 463 677.145 460.365 675.073 C 457.320 672.677, 452.653 672.454, 448.849 674.520 M 234 675.383 C 234 676.144, 234.900 677.002, 236 677.290 C 237.889 677.784, 238 678.654, 238 692.906 C 238 707.333, 237.912 708, 236 708 C 234.667 708, 234 708.667, 234 710 C 234 711.733, 234.667 712, 239 712 C 243.333 712, 244 711.733, 244 710 C 244 708.667, 243.333 708, 242 708 C 238.954 708, 239.187 698.581, 242.328 694.744 L 244.584 691.988 247.732 698.244 C 249.462 701.685, 251.558 706.188, 252.388 708.250 L 253.898 712 263.449 712 C 272.333 712, 273 711.860, 273 710 C 273 708.533, 272.333 708, 270.500 708 L 268 708 268 693.833 C 268 686.042, 268.171 679.854, 268.380 680.083 C 268.589 680.313, 271.790 687.587, 275.494 696.250 C 280.789 708.634, 282.632 712, 284.114 712 C 285.890 712, 286 710.980, 286 694.500 C 286 679.611, 286.224 677, 287.500 677 C 288.325 677, 289 676.325, 289 675.500 C 289 674.348, 287.722 674, 283.500 674 C 279.278 674, 278 674.348, 278 675.500 C 278 676.433, 278.944 677, 280.500 677 L 283 677 282.981 691.750 L 282.962 706.500 276.152 690.500 L 269.343 674.500 265.171 674.193 C 261.930 673.954, 261 674.232, 261 675.443 C 261 676.333, 261.856 677, 263 677 C 264.914 677, 265 677.667, 265 692.500 L 265 708 260.250 707.972 L 255.500 707.944 250.923 698.705 L 246.346 689.466 250.923 683.275 C 253.440 679.870, 256.288 677.065, 257.250 677.042 C 258.212 677.019, 259 676.325, 259 675.500 C 259 674.367, 257.778 674, 254 674 C 250.336 674, 249 674.381, 249 675.427 C 249 676.211, 249.712 676.999, 250.582 677.177 C 251.785 677.423, 250.952 679.099, 247.103 684.178 C 244.319 687.851, 241.582 691.140, 241.021 691.487 C 240.361 691.895, 240 689.447, 240 684.559 C 240 677.667, 240.176 677, 242 677 C 243.111 677, 244 676.333, 244 675.500 C 244 674.367, 242.778 674, 239 674 C 235.410 674, 234 674.390, 234 675.383 M 321 675.393 C 321 676.159, 321.591 677.013, 322.314 677.290 C 323.253 677.651, 323.995 682.606, 324.914 694.647 C 325.620 703.916, 326.360 711.668, 326.556 711.874 C 328.127 713.515, 329.972 709.742, 332.069 700.601 C 333.406 694.771, 334.755 690.001, 335.067 690.001 C 335.379 690, 336.442 693.427, 337.430 697.616 C 340.373 710.100, 341.031 712, 342.409 712 C 343.809 712, 344.389 707.874, 345.618 689.173 C 346.047 682.641, 346.793 678.350, 347.648 677.495 C 350.143 675, 349.099 674, 344 674 C 340.222 674, 339 674.367, 339 675.500 C 339 676.447, 339.954 677, 341.590 677 L 344.180 677 343.557 685.750 C 343.215 690.563, 342.659 696.525, 342.321 699 C 341.708 703.493, 341.703 703.484, 339.067 693.071 C 337.615 687.335, 335.910 682.470, 335.278 682.259 C 334.071 681.857, 333.148 684.594, 330.312 696.981 L 328.591 704.500 327.944 699.500 C 327.589 696.750, 326.982 690.563, 326.597 685.750 L 325.896 677 328.448 677 C 330.050 677, 331 676.442, 331 675.500 C 331 674.367, 329.778 674, 326 674 C 322.393 674, 321 674.388, 321 675.393 M 353 675.500 C 353 676.433, 353.944 677, 355.500 677 L 358 677 358 692.500 L 358 708 355.500 708 C 353.667 708, 353 708.533, 353 710 C 353 711.889, 353.667 712, 365 712 L 377 712 377 703.500 C 377 698.500, 376.588 695, 376 695 C 375.436 695, 375 697.833, 375 701.500 L 375 708 367.474 708 L 359.948 708 360.224 692.750 L 360.500 677.500 363.750 677.187 C 365.763 676.993, 367 676.327, 367 675.437 C 367 674.325, 365.418 674, 360 674 C 354.444 674, 353 674.310, 353 675.500 M 383 675.383 C 383 676.144, 383.900 677.002, 385 677.290 C 386.889 677.784, 387 678.654, 387 692.906 C 387 707.333, 386.912 708, 385 708 C 383.667 708, 383 708.667, 383 710 C 383 711.884, 383.667 712, 394.500 712 L 406 712 406 705.500 C 406 701.833, 405.564 699, 405 699 C 404.450 699, 404 701.025, 404 703.500 L 404 708 396.454 708 L 388.909 708 389.204 701.250 L 389.500 694.500 393.250 694.190 C 396.688 693.905, 397 694.092, 397 696.440 C 397 698.049, 397.557 699, 398.500 699 C 399.679 699, 400 697.611, 400 692.500 C 400 687.389, 399.679 686, 398.500 686 C 397.567 686, 397 686.944, 397 688.500 C 397 690.750, 396.600 691, 393 691 L 389 691 389 683.956 L 389 676.912 396.250 677.206 L 403.500 677.500 403.807 681.750 C 404.274 688.204, 406 686.827, 406 680 L 406 674 394.500 674 C 385.375 674, 383 674.286, 383 675.383 M 411 675.500 C 411 676.333, 411.889 677, 413 677 C 414.914 677, 415 677.667, 415 692.500 C 415 707.333, 414.914 708, 413 708 C 411.623 708, 411 708.667, 411 710.139 C 411 712.200, 411.320 712.259, 419.794 711.776 C 424.662 711.498, 429.572 710.659, 430.794 709.897 C 434.203 707.768, 436.378 702.186, 436.806 694.471 C 437.310 685.400, 435.787 679.840, 431.904 676.573 C 429.120 674.230, 428.050 674, 419.923 674 C 412.658 674, 411 674.279, 411 675.500 M 472 675.500 C 472 676.333, 472.889 677, 474 677 C 475.914 677, 476 677.667, 476 692.500 C 476 707.333, 475.914 708, 474 708 C 472.667 708, 472 708.667, 472 710 C 472 711.889, 472.667 712, 484 712 L 496 712 496 705.500 C 496 700.389, 495.679 699, 494.500 699 C 493.389 699, 493 700.167, 493 703.500 L 493 708 486 708 L 479 708 479 700.940 L 479 693.879 482.750 694.190 C 485.762 694.439, 486.563 694.943, 486.820 696.750 C 487.505 701.575, 489 698.661, 489 692.500 C 489 688.833, 488.564 686, 488 686 C 487.450 686, 487 687.125, 487 688.500 C 487 690.750, 486.600 691, 483 691 L 479 691 479 684 L 479 677 486 677 L 493 677 493 681.500 C 493 684.833, 493.389 686, 494.500 686 C 495.667 686, 496 684.667, 496 680 L 496 674 484 674 C 474 674, 472 674.250, 472 675.500 M 302.055 677.274 C 297.751 679.440, 295.500 684.669, 295.500 692.500 C 295.500 700.299, 297.007 704.215, 301.201 707.319 C 307.791 712.195, 315 704.587, 315 692.756 C 315 681.397, 308.740 673.910, 302.055 677.274 M 418 692.500 L 418 708 421.935 708 C 430.973 708, 434.346 703.635, 434.312 691.983 C 434.280 681.105, 430.888 677, 421.935 677 L 418 677 418 692.500" stroke="none" fill="black" fill-rule="evenodd"/>
</svg>